<?xml version="1.0" encoding="UTF-8" standalone="no"?>
<!-- Uploaded to: SVG Repo, www.svgrepo.com, Generator: SVG Repo Mixer Tools -->

<svg
   width="256"
   height="256"
   viewBox="0 0 7.68 7.68"
   fill="none"
   version="1.1"
   id="svg2"
   sodipodi:docname="external.svg"
   inkscape:version="1.4 (86a8ad7, 2024-10-11)"
   xmlns:inkscape="http://www.inkscape.org/namespaces/inkscape"
   xmlns:sodipodi="http://sodipodi.sourceforge.net/DTD/sodipodi-0.dtd"
   xmlns="http://www.w3.org/2000/svg"
   xmlns:svg="http://www.w3.org/2000/svg">
  <defs
     id="defs2" />
  <sodipodi:namedview
     id="namedview2"
     pagecolor="#7e7e7e"
     bordercolor="#000000"
     borderopacity="0.25"
     inkscape:showpageshadow="2"
     inkscape:pageopacity="0.0"
     inkscape:pagecheckerboard="true"
     inkscape:deskcolor="#d1d1d1"
     inkscape:zoom="2.08"
     inkscape:cx="123.31731"
     inkscape:cy="206.25"
     inkscape:window-width="1920"
     inkscape:window-height="1027"
     inkscape:window-x="-8"
     inkscape:window-y="-8"
     inkscape:window-maximized="1"
     inkscape:current-layer="svg2" />
  <g
     id="g2"
     transform="matrix(0.33945376,0,0,0.33945376,-0.148606,-0.31832041)">
    <path
       d="m 20.2929,9.70708 c 0.286,0.28599 0.7161,0.37152 1.0898,0.21677 C 21.7564,9.76907 22,9.40443 22,8.99997 v -6 c 0,-0.55229 -0.4477,-1 -1,-1 h -6 c -0.4045,0 -0.7691,0.24364 -0.9239,0.61732 -0.1548,0.37367 -0.0692,0.80379 0.2168,1.08979 l 1.9393,1.93933 -6.64646,6.64649 c -0.39052,0.3905 -0.39052,1.0237 0,1.4142 l 0.70706,0.7071 c 0.3906,0.3906 1.0237,0.3906 1.4143,0 l 6.6465,-6.64646 z"
       fill="#000000"
       id="path1"
       style="fill:#ffffff;fill-opacity:1" />
    <path
       d="m 4.5,8.00006 c 0,-0.27614 0.22386,-0.5 0.5,-0.5 h 5.0625 c 0.5523,0 1,-0.44772 1,-1 v -1 c 0,-0.55229 -0.4477,-1 -1,-1 H 5 c -1.933,0 -3.5,1.567 -3.5,3.5 V 19.0001 c 0,1.933 1.567,3.5 3.5,3.5 h 11 c 1.933,0 3.5,-1.567 3.5,-3.5 v -5.0625 c 0,-0.5523 -0.4477,-1 -1,-1 h -1 c -0.5523,0 -1,0.4477 -1,1 v 5.0625 c 0,0.2761 -0.2239,0.5 -0.5,0.5 H 5 c -0.27614,0 -0.5,-0.2239 -0.5,-0.5 z"
       fill="#000000"
       id="path2"
       style="fill:#ffffff;fill-opacity:1" />
  </g>
</svg>
