<?xml version="1.0" encoding="UTF-8" standalone="no"?>
<!-- Uploaded to: SVG Repo, www.svgrepo.com, Transformed by: SVG Repo Mixer Tools -->

<svg
   fill="#ffffff"
   height="256px"
   width="256px"
   version="1.1"
   id="Icons"
   viewBox="0 0 32 32"
   xml:space="preserve"
   stroke="#ffffff"
   sodipodi:docname="linkedin.svg"
   inkscape:version="1.4 (86a8ad7, 2024-10-11)"
   xmlns:inkscape="http://www.inkscape.org/namespaces/inkscape"
   xmlns:sodipodi="http://sodipodi.sourceforge.net/DTD/sodipodi-0.dtd"
   xmlns="http://www.w3.org/2000/svg"
   xmlns:svg="http://www.w3.org/2000/svg"><defs
   id="defs1" /><sodipodi:namedview
   id="namedview1"
   pagecolor="#8d8d8d"
   bordercolor="#000000"
   borderopacity="0.25"
   inkscape:showpageshadow="2"
   inkscape:pageopacity="0.0"
   inkscape:pagecheckerboard="false"
   inkscape:deskcolor="#d1d1d1"
   inkscape:zoom="2.298097"
   inkscape:cx="112.04923"
   inkscape:cy="168.83534"
   inkscape:window-width="1920"
   inkscape:window-height="1027"
   inkscape:window-x="-8"
   inkscape:window-y="-8"
   inkscape:window-maximized="1"
   inkscape:current-layer="Icons" />





<g
   id="SVGRepo_iconCarrier"
   transform="matrix(0.90440048,0,0,0.90440048,1.5295923,1.5295923)"> <path
   d="M 23,0 H 9 C 4,0 0,4 0,9 v 14 c 0,5 4,9 9,9 h 14 c 5,0 9,-4 9,-9 V 9 C 32,4 28,0 23,0 Z M 12,25 c 0,0.6 -0.4,1 -1,1 H 7 C 6.4,26 6,25.6 6,25 V 13 c 0,-0.6 0.4,-1 1,-1 h 4 c 0.6,0 1,0.4 1,1 z M 9,11 C 7.3,11 6,9.7 6,8 6,6.3 7.3,5 9,5 c 1.7,0 3,1.3 3,3 0,1.7 -1.3,3 -3,3 z m 17,14 c 0,0.6 -0.4,1 -1,1 h -3 c -0.6,0 -1,-0.4 -1,-1 v -3.5 -1 -2 C 21,17.7 20.3,17 19.5,17 18.7,17 18,17.7 18,18.5 v 2 1 3.5 c 0,0.6 -0.4,1 -1,1 h -3 c -0.6,0 -1,-0.4 -1,-1 V 13 c 0,-0.6 0.4,-1 1,-1 h 4 c 0.3,0 0.5,0.1 0.7,0.3 0.6,-0.2 1.2,-0.3 1.8,-0.3 3,0 5.5,2.5 5.5,5.5 z"
   id="path1" /> </g>

</svg>
